<svg xmlns="http://www.w3.org/2000/svg" width="170" height="40" viewBox="0 0 170 40" fill="none">
  <path d="M66.6831 28.75H62.9164V18.9833C62.9164 17.8944 62.6498 17.0389 62.1164 16.4166C61.5831 15.7722 60.8498 15.45 59.9164 15.45C58.8498 15.45 58.0164 15.8055 57.4164 16.5166C56.8386 17.2277 56.5498 18.2055 56.5498 19.45V28.75H52.7498V12.4166H56.4831V13.85C57.5053 12.6277 58.9164 12.0166 60.7164 12.0166C62.7386 12.0166 64.2609 12.7277 65.2831 14.15C66.5498 12.7277 68.2498 12.0166 70.3831 12.0166C72.5164 12.0166 74.1275 12.6389 75.2164 13.8833C76.3275 15.1055 76.8831 16.8944 76.8831 19.25V28.75H73.0831V18.9833C73.0831 17.8944 72.8164 17.0389 72.2831 16.4166C71.7498 15.7722 71.0164 15.45 70.0831 15.45C69.0164 15.45 68.1831 15.8166 67.5831 16.55C66.9831 17.2611 66.6831 18.2277 66.6831 19.45V28.75Z" fill="#111827" />
  <path d="M95.3693 20.3833L95.336 21.7166H84.1693C84.2582 22.9389 84.6915 23.9055 85.4693 24.6166C86.2471 25.3277 87.2471 25.6833 88.4693 25.6833C90.2248 25.6833 91.6248 24.9166 92.6693 23.3833L95.236 25.7833C93.5026 28.0055 91.2471 29.1166 88.4693 29.1166C86.0026 29.1166 84.0248 28.3389 82.536 26.7833C81.0248 25.2055 80.2693 23.1722 80.2693 20.6833C80.2693 18.2611 80.9582 16.2055 82.336 14.5166C83.736 12.85 85.5915 12.0166 87.9026 12.0166C90.3693 12.0166 92.2248 12.8389 93.4693 14.4833C94.736 16.1277 95.3693 18.0944 95.3693 20.3833ZM87.936 15.4833C86.9804 15.4833 86.1915 15.7833 85.5693 16.3833C84.9693 16.9833 84.5693 17.75 84.3693 18.6833H91.336C91.3137 17.7722 91.0137 17.0166 90.436 16.4166C89.8582 15.7944 89.0248 15.4833 87.936 15.4833Z" fill="#111827" />
  <path d="M106.563 12.0166C108.385 12.0166 109.907 12.55 111.129 13.6166V5.3833H114.929V28.75H111.196V27.2833C110.041 28.5055 108.496 29.1166 106.563 29.1166C104.252 29.1166 102.341 28.3166 100.829 26.7166C99.3406 25.0944 98.5961 23.05 98.5961 20.5833C98.5961 18.1166 99.3406 16.0722 100.829 14.45C102.318 12.8277 104.229 12.0166 106.563 12.0166ZM110.029 16.85C109.252 15.8722 108.185 15.3833 106.829 15.3833C105.474 15.3833 104.407 15.8722 103.629 16.85C102.852 17.8277 102.463 19.0722 102.463 20.5833C102.463 22.0944 102.852 23.3389 103.629 24.3166C104.407 25.2944 105.474 25.7833 106.829 25.7833C108.185 25.7833 109.252 25.2944 110.029 24.3166C110.807 23.3389 111.196 22.0944 111.196 20.5833C111.196 19.0722 110.807 17.8277 110.029 16.85Z" fill="#111827" />
  <path d="M119.113 12.4166H122.913V22.1833C122.913 23.2722 123.18 24.1389 123.713 24.7833C124.247 25.4055 125.002 25.7166 125.98 25.7166C127.024 25.7166 127.847 25.35 128.447 24.6166C129.069 23.8611 129.38 22.8611 129.38 21.6166V12.4166H133.18V28.75H129.447V27.4166C128.402 28.55 126.991 29.1166 125.213 29.1166C123.347 29.1166 121.858 28.4833 120.747 27.2166C119.658 25.9277 119.113 24.1611 119.113 21.9166V12.4166Z" fill="#111827" />
  <path d="M144.441 22.5833L142.274 22.05C138.963 21.2722 137.308 19.55 137.308 16.8833C137.308 15.4166 137.863 14.2389 138.974 13.35C140.085 12.4611 141.519 12.0166 143.274 12.0166C145.63 12.0166 147.685 12.9277 149.441 14.75L147.008 17.35C146.008 15.9722 144.73 15.2833 143.174 15.2833C142.508 15.2833 141.963 15.4389 141.541 15.75C141.141 16.0389 140.941 16.3944 140.941 16.8166C140.941 17.5722 141.474 18.0833 142.541 18.35L145.108 18.95C148.441 19.7055 150.108 21.4055 150.108 24.05C150.108 25.5611 149.53 26.7833 148.374 27.7166C147.241 28.65 145.663 29.1166 143.641 29.1166C140.796 29.1166 138.541 28.0611 136.874 25.95L139.274 23.4833C140.474 25.0611 142.03 25.85 143.941 25.85C145.608 25.85 146.441 25.2944 146.441 24.1833C146.441 23.4722 145.774 22.9389 144.441 22.5833Z" fill="#111827" />
  <path d="M158.296 29.1166C156.718 29.1166 155.407 28.6722 154.363 27.7833C153.318 26.8722 152.796 25.6611 152.796 24.15C152.796 22.4166 153.418 21.0722 154.663 20.1166C155.907 19.1611 157.552 18.6833 159.596 18.6833C160.618 18.6833 161.718 18.8722 162.896 19.25V18.15C162.896 17.35 162.596 16.7055 161.996 16.2166C161.396 15.7055 160.629 15.45 159.696 15.45C157.985 15.45 156.696 16.2389 155.829 17.8166L153.263 15.4166C153.863 14.3277 154.741 13.4944 155.896 12.9166C157.074 12.3166 158.352 12.0166 159.729 12.0166C161.885 12.0166 163.585 12.55 164.829 13.6166C166.074 14.6833 166.696 16.2055 166.696 18.1833V28.75H162.963V27.4833C161.741 28.5722 160.185 29.1166 158.296 29.1166ZM156.596 23.8833C156.596 24.4389 156.807 24.8944 157.229 25.25C157.674 25.6055 158.285 25.7833 159.063 25.7833C160.663 25.7833 161.941 25.3166 162.896 24.3833V22.5166C161.696 22.0722 160.563 21.85 159.496 21.85C158.607 21.85 157.896 22.0277 157.363 22.3833C156.852 22.7389 156.596 23.2389 156.596 23.8833Z" fill="#111827" />
  <path d="M32.3779 6.49296L23.3471 1.28192C20.3923 -0.427306 16.7716 -0.427306 13.8168 1.28192L4.74432 6.49296C1.83114 8.20219 0 11.3705 0 14.7473V25.211C0 28.6295 1.83114 31.7561 4.74432 33.4653L13.7752 38.7181C16.73 40.4273 20.3506 40.4273 23.3054 38.7181L32.3363 33.4653C35.2911 31.7561 37.0806 28.6295 37.0806 25.211V14.7473C37.1638 11.3705 35.3327 8.20219 32.3779 6.49296ZM18.5611 29.2965C13.4422 29.2965 9.28056 25.1277 9.28056 20C9.28056 14.8723 13.4422 10.7035 18.5611 10.7035C23.68 10.7035 27.8833 14.8723 27.8833 20C27.8833 25.1277 23.7216 29.2965 18.5611 29.2965Z" fill="url(#paint0_linear_2238_24587)" />
  <defs>
    <linearGradient id="paint0_linear_2238_24587" x1="0" y1="40" x2="44.7502" y2="27.5437" gradientUnits="userSpaceOnUse">
      <stop stop-color="#7C53FF" />
      <stop offset="1" stop-color="#F796FF" />
    </linearGradient>
  </defs>
</svg>